<?xml version="1.0" standalone="no"?>
<!DOCTYPE svg PUBLIC "-//W3C//DTD SVG 20010904//EN"
 "http://www.w3.org/TR/2001/REC-SVG-20010904/DTD/svg10.dtd">
<svg version="1.0" xmlns="http://www.w3.org/2000/svg"
 width="300.000000pt" height="354.000000pt" viewBox="0 0 300.000000 354.000000"
 preserveAspectRatio="xMidYMid meet">
<metadata>
Created by potrace 1.10, written by Peter Selinger 2001-2011
</metadata>
<g transform="translate(0.000000,354.000000) scale(0.050000,-0.050000)"
fill="#000000" stroke="none">
<path d="M0 6500 l0 -580 1210 0 1210 0 0 -810 0 -810 -1210 0 -1210 0 0
-1720 0 -1720 590 0 590 0 0 1140 0 1140 620 0 620 0 0 -1570 0 -1570 580 0
580 0 0 1570 0 1570 630 0 630 0 0 -1140 0 -1140 580 0 580 0 0 1720 0 1720
-1210 0 -1210 0 5 805 5 805 1205 5 1205 5 0 580 0 580 -3000 0 -3000 0 0
-580z"/>
</g>
</svg>
